<?xml version="1.0" encoding="UTF-8" standalone="no"?>
<svg
   height="16"
   viewBox="0 0 16 16"
   width="16"
   version="1.1"
   id="svg6"
   sodipodi:docname="ReadOnly.svg"
   inkscape:version="1.2.2 (732a01da63, 2022-12-09)"
   xmlns:inkscape="http://www.inkscape.org/namespaces/inkscape"
   xmlns:sodipodi="http://sodipodi.sourceforge.net/DTD/sodipodi-0.dtd"
   xmlns="http://www.w3.org/2000/svg"
   xmlns:svg="http://www.w3.org/2000/svg">
  <defs
     id="defs10" />
  <sodipodi:namedview
     id="namedview8"
     pagecolor="#ffffff"
     bordercolor="#000000"
     borderopacity="0.25"
     inkscape:showpageshadow="2"
     inkscape:pageopacity="0.0"
     inkscape:pagecheckerboard="0"
     inkscape:deskcolor="#d1d1d1"
     showgrid="false"
     inkscape:zoom="51.8125"
     inkscape:cx="7.9613993"
     inkscape:cy="8.0096502"
     inkscape:window-width="1920"
     inkscape:window-height="1009"
     inkscape:window-x="1912"
     inkscape:window-y="-8"
     inkscape:window-maximized="1"
     inkscape:current-layer="layer1" />
  <rect
     x="1"
     y="5"
     height="10"
     width="11"
     rx="1.5"
     fill="#919191"
     id="rect2"
     style="display:none" />
  <path
     d="M 5.5,1 A 1.5,1.5 0 0 0 4,2.5 V 3 H 15 V 2.5 A 1.5,1.5 0 0 0 13.5,1 Z M 4,4 V 9.5 A 1.5,1.5 0 0 0 5.5,11 h 8 A 1.5,1.5 0 0 0 15,9.5 V 4 Z"
     fill="#e0e0e0"
     id="path4"
     style="display:none" />
  <g
     inkscape:groupmode="layer"
     id="layer1"
     inkscape:label="Layer 1"
     style="display:inline">
    <rect
       style="opacity:1;fill:#ff0000;fill-opacity:1;stroke:#ff0000;stroke-width:0.778069;stroke-opacity:1;image-rendering:auto"
       id="rect846"
       width="4.6224136"
       height="4.42941"
       x="9.9059219"
       y="10.542834"
       inkscape:label="rect846" />
    <path
       id="path4303"
       style="opacity:1;fill:#ff0000;fill-opacity:1;stroke:#ff0000;stroke-width:0.748153;stroke-opacity:1"
       d="M 12.216797 7.3242188 A 1.8822566 1.9594581 0 0 0 10.333984 9.2832031 A 1.8822566 1.9594581 0 0 0 12.216797 11.242188 A 1.8822566 1.9594581 0 0 0 14.099609 9.2832031 A 1.8822566 1.9594581 0 0 0 12.216797 7.3242188 z M 12.15625 7.7070312 A 1.4774913 1.5380911 0 0 1 13.634766 9.2441406 A 1.4774913 1.5380911 0 0 1 12.15625 10.783203 A 1.4774913 1.5380911 0 0 1 10.679688 9.2441406 A 1.4774913 1.5380911 0 0 1 12.15625 7.7070312 z " />
  </g>
</svg>
